<?xml version="1.0" standalone="no"?>
<!DOCTYPE svg PUBLIC "-//W3C//DTD SVG 20010904//EN"
 "http://www.w3.org/TR/2001/REC-SVG-20010904/DTD/svg10.dtd">
<svg version="1.0" xmlns="http://www.w3.org/2000/svg"
 width="811.000000pt" height="1386.000000pt" viewBox="0 0 811.000000 1386.000000"
 preserveAspectRatio="xMidYMid meet">

<g transform="translate(0.000000,1386.000000) scale(0.100000,-0.100000)"
fill="#000000" stroke="none">
<path d="M0 6930 l0 -6930 4055 0 4055 0 0 6930 0 6930 -4055 0 -4055 0 0
-6930z m5894 3962 c59 -28 93 -56 245 -207 101 -100 190 -197 209 -229 48 -78
65 -154 59 -251 -7 -104 -19 -141 -67 -212 -24 -35 -627 -646 -1544 -1563
l-1506 -1505 1518 -1515 c1665 -1662 1568 -1558 1593 -1708 15 -93 0 -190 -42
-275 -25 -49 -68 -99 -213 -243 -154 -153 -191 -185 -251 -214 -62 -31 -81
-35 -170 -38 -121 -5 -184 13 -278 82 -34 24 -875 858 -1868 1853 -1989 1992
-1849 1842 -1871 1995 -14 89 0 176 41 266 33 72 -172 -135 3299 3323 410 409
418 416 492 448 71 30 81 31 180 28 93 -3 113 -7 174 -35z"/>
</g>
</svg>
