<?xml version="1.0" standalone="no"?>
<!DOCTYPE svg PUBLIC "-//W3C//DTD SVG 20010904//EN"
 "http://www.w3.org/TR/2001/REC-SVG-20010904/DTD/svg10.dtd">
<svg version="1.0" xmlns="http://www.w3.org/2000/svg"
 width="658.000000pt" height="1125.000000pt" viewBox="0 0 658.000000 1125.000000"
 preserveAspectRatio="xMidYMid meet">

<g transform="translate(0.000000,1125.000000) scale(0.100000,-0.100000)"
fill="#000000" stroke="none">
<path d="M4585 9007 c-22 -8 -60 -24 -85 -36 -33 -17 -470 -448 -1587 -1564
-1751 -1750 -1598 -1582 -1598 -1762 0 -180 -154 -10 1608 -1771 l1552 -1551
77 -28 c103 -37 184 -33 281 13 55 25 93 56 193 154 69 67 142 145 163 172 46
60 81 159 81 228 0 55 -31 157 -62 203 -12 16 -594 604 -1294 1305 l-1274
1275 1275 1275 c702 701 1285 1290 1296 1308 80 127 77 292 -7 413 -14 21 -90
101 -169 178 -168 165 -213 191 -335 197 -46 2 -91 -1 -115 -9z"/>
</g>
</svg>
