<?xml version="1.0" standalone="no"?>
<!DOCTYPE svg PUBLIC "-//W3C//DTD SVG 20010904//EN"
 "http://www.w3.org/TR/2001/REC-SVG-20010904/DTD/svg10.dtd">
<svg version="1.0" xmlns="http://www.w3.org/2000/svg"
 width="658.000000pt" height="1125.000000pt" viewBox="0 0 658.000000 1125.000000"
 preserveAspectRatio="xMidYMid meet">

<g transform="translate(0.000000,1125.000000) scale(0.100000,-0.100000)"
fill="#000000" stroke="none">
<path d="M2092 9001 c-83 -31 -108 -51 -264 -208 -188 -190 -203 -217 -203
-363 0 -97 2 -109 30 -162 25 -47 254 -282 1309 -1338 704 -704 1277 -1282
1275 -1285 -2 -2 -578 -579 -1280 -1282 -1020 -1020 -1282 -1288 -1303 -1329
-52 -106 -52 -242 1 -348 17 -34 74 -99 172 -198 124 -124 158 -152 215 -179
99 -46 181 -50 283 -14 l78 28 1552 1551 c1265 1265 1556 1561 1577 1603 48
97 50 235 6 329 -19 39 -332 358 -1574 1601 -1429 1430 -1556 1554 -1611 1579
-81 36 -189 42 -263 15z"/>
</g>
</svg>
