<?xml version="1.0" standalone="no"?>
<!DOCTYPE svg PUBLIC "-//W3C//DTD SVG 20010904//EN"
 "http://www.w3.org/TR/2001/REC-SVG-20010904/DTD/svg10.dtd">
<svg version="1.0" xmlns="http://www.w3.org/2000/svg"
 width="811.000000pt" height="1386.000000pt" viewBox="0 0 811.000000 1386.000000"
 preserveAspectRatio="xMidYMid meet">

<g transform="translate(0.000000,1386.000000) scale(0.100000,-0.100000)"
fill="#000000" stroke="none">
<path d="M0 6930 l0 -6930 4055 0 4055 0 0 6930 0 6930 -4055 0 -4055 0 0
-6930z m2795 3962 c68 -32 124 -86 1902 -1865 1742 -1742 1834 -1835 1863
-1899 70 -149 60 -298 -28 -438 -44 -69 -3579 -3612 -3669 -3677 -95 -68 -157
-86 -278 -81 -89 3 -108 7 -170 38 -60 29 -97 61 -252 215 -156 155 -187 191
-213 247 -60 129 -61 266 -2 392 27 57 156 189 1550 1587 l1522 1524 -1514
1515 c-833 833 -1525 1533 -1538 1555 -42 68 -58 132 -58 225 0 99 17 160 65
235 40 62 367 386 415 411 88 46 122 53 230 51 94 -3 112 -7 175 -35z"/>
</g>
</svg>
